<svg width="30" height="28" viewBox="0 0 30 28" fill="none" xmlns="http://www.w3.org/2000/svg">
<g clip-path="url(#clip0_453_372)">
<path d="M0 13.1225C0.078125 12.589 0.134376 12.0532 0.228126 11.5228C0.747657 8.60136 2.09453 6.10145 4.22266 4.02077C6.22344 2.0644 8.60156 0.744188 11.3773 0.26706C17.2422 -0.74124 22.0328 1.11246 25.6586 5.77874C27.2148 7.78067 28.0305 10.1022 28.2969 12.6091C28.2969 12.6446 28.3086 12.6793 28.3242 12.7758C28.6445 12.2902 28.9336 11.8494 29.2258 11.4101C29.475 11.0364 29.7211 11.0295 30 11.3854V11.617C29.4531 12.4415 28.9125 13.2646 28.3734 14.0876C28.1227 14.4736 27.8398 14.4736 27.5922 14.0922C27.0906 13.3201 26.5862 12.5517 26.0789 11.7868C25.9703 11.6216 25.9094 11.4587 26.0406 11.2796C26.2063 11.0534 26.5141 11.0789 26.6969 11.346C26.9477 11.712 27.1859 12.0849 27.4297 12.4554L27.5078 12.4385C27.4539 12.0887 27.4148 11.7359 27.3438 11.3892C26.7937 8.70461 25.4185 6.25322 23.406 4.36982C21.3935 2.48642 18.8417 1.26284 16.0992 0.866172C9.24453 -0.137495 2.62891 4.3404 1.10859 11.0117C-0.329687 17.3248 2.93203 23.6556 8.93984 26.1964C10.5415 26.8728 12.2622 27.2312 14.0039 27.251C14.0523 27.251 14.1016 27.251 14.15 27.251C14.3898 27.2603 14.5406 27.3777 14.5539 27.6193C14.5687 27.8409 14.3977 28.0107 14.1367 27.9976C13.4844 27.9652 12.825 27.9613 12.1836 27.8594C7.30703 27.082 3.73281 24.5041 1.4625 20.1775C0.63125 18.594 0.186719 16.8909 0.0515628 15.1105C0.0399882 15.0254 0.0230283 14.9411 0.000782013 14.8581L0 13.1225Z" fill="black"/>
<path d="M14.1781 5.7688H21.3828C22.4109 5.7688 23.0289 6.37409 23.0289 7.38161C23.0289 11.7911 23.0289 16.2 23.0289 20.6084C23.0289 21.5989 22.4039 22.2127 21.4031 22.2135H6.96484C5.94922 22.2135 5.33203 21.5959 5.33203 20.5852C5.33203 16.1861 5.33203 11.7869 5.33203 7.38779C5.33203 6.37794 5.95 5.76648 6.97266 5.76648L14.1781 5.7688ZM11.6781 6.52155H6.99063C6.37188 6.52155 6.09219 6.79331 6.09219 7.39783V20.5698C6.09219 21.1928 6.36719 21.4607 7.00625 21.4607H21.3617C21.9969 21.4607 22.2672 21.1928 22.2672 20.5629C22.2672 16.1822 22.2672 11.8014 22.2672 7.42022C22.2672 6.78945 21.9977 6.52232 21.3633 6.52155H16.6844V6.88827C16.6844 8.41307 16.6906 9.93787 16.675 11.4627C16.6634 11.6377 16.5836 11.8015 16.4523 11.9197C16.2898 12.0525 16.1047 11.9352 15.9578 11.8062C15.8797 11.736 15.793 11.6704 15.7102 11.6024L14.118 10.3031C14.0008 10.4034 13.8984 10.4899 13.7977 10.5779C13.3289 10.9879 12.8719 11.4086 12.3914 11.8008C12.275 11.895 12.0383 11.9761 11.9328 11.9205C11.8062 11.8549 11.6984 11.6387 11.6922 11.4835C11.6664 10.8381 11.6812 10.1903 11.6812 9.54413L11.6781 6.52155ZM12.4656 6.53081V10.7408C12.9211 10.3424 13.3352 9.97802 13.7516 9.61516C14.0375 9.36656 14.1617 9.36656 14.4609 9.60975C14.7172 9.81743 14.9719 10.0282 15.2281 10.2367C15.4406 10.4096 15.6547 10.5802 15.9 10.7771V6.53081H12.4656Z" fill="black"/>
<path d="M7.90859 19.668H14.6602C14.9852 19.668 15.1758 19.8178 15.1664 20.054C15.157 20.2903 14.9781 20.4177 14.6633 20.4177C12.3195 20.4177 9.97578 20.4177 7.63203 20.4177C7.27187 20.4177 7.14531 20.288 7.14453 19.9251C7.14453 17.9569 7.14453 15.9889 7.14453 14.0212C7.14453 13.7186 7.29375 13.5364 7.52656 13.5379C7.75937 13.5395 7.90469 13.724 7.90469 14.0258C7.90469 15.7918 7.90469 17.5572 7.90469 19.3221L7.90859 19.668Z" fill="black"/>
</g>
<defs>
<clipPath id="clip0_453_372">
<rect width="30" height="28" fill="white"/>
</clipPath>
</defs>
</svg>
