<svg width="29" height="20" viewBox="0 0 29 20" fill="none" xmlns="http://www.w3.org/2000/svg">
<mask id="path-1-inside-1_457_816" fill="white">
<path d="M11.4862 5.68954e-05H18.9814C19.4196 -0.0497946 19.8604 0.0694159 20.2132 0.333296C20.566 0.597176 20.8043 0.985722 20.879 1.41917C20.9356 1.85887 20.9356 2.30394 20.879 2.74364C20.879 3.08422 20.8789 3.10315 21.1826 3.10315H24.5412C25.0723 3.08075 25.5992 3.20713 26.062 3.46797C26.5248 3.72882 26.9051 4.11371 27.1598 4.57902C27.2331 4.71052 27.2904 4.85026 27.3306 4.9953C27.8239 6.45225 28.3173 7.92814 28.7917 9.38509C29.0751 10.225 29.1531 11.1202 29.0194 11.9963C28.8486 13.2451 28.7158 14.4939 28.545 15.7806C28.4792 16.2803 28.2288 16.7377 27.8428 17.0631C27.4567 17.3885 26.9629 17.5587 26.4577 17.5402H25.471C25.2623 17.5402 25.1864 17.5402 25.1105 17.8051C24.9382 18.3819 24.6034 18.8971 24.1459 19.2896C23.6884 19.6821 23.1274 19.9352 22.5298 20.019C22.1993 20.0756 21.8608 20.066 21.534 19.9907C21.2072 19.9153 20.8988 19.7758 20.6267 19.5803C20.3547 19.3847 20.1244 19.1371 19.9494 18.8518C19.7744 18.5665 19.6582 18.2493 19.6076 17.9187C19.6076 17.6538 19.4748 17.5402 19.1712 17.5402H9.1522C9.04986 17.5284 8.94673 17.5547 8.86266 17.614C8.77859 17.6734 8.71951 17.7617 8.69678 17.8619C8.46337 18.6063 7.95581 19.2349 7.27629 19.621C6.59678 20.0072 5.79579 20.1223 5.03456 19.9433C4.54492 19.8477 4.09798 19.6006 3.7573 19.2371C3.41663 18.8736 3.19957 18.4123 3.13702 17.9187C3.13702 17.6349 2.98523 17.5024 2.7006 17.5402H1.86568C1.6254 17.5388 1.38807 17.4873 1.16887 17.3892C0.949672 17.291 0.753423 17.1483 0.592684 16.9703C0.431945 16.7922 0.31026 16.5826 0.235391 16.3549C0.160522 16.1273 0.134113 15.8865 0.157881 15.6481L0.385605 13.7559C0.393588 13.5993 0.457102 13.4504 0.56483 13.3361C0.672559 13.2217 0.8175 13.1493 0.973835 13.1316C1.12146 13.1075 1.27282 13.1385 1.39888 13.2188C1.52494 13.2991 1.61684 13.423 1.65695 13.5667C1.65695 13.7749 1.88464 13.7559 2.05541 13.7559H17.6531C17.9567 13.7559 18.0516 13.7559 18.0896 13.3775C18.3932 10.7474 18.7347 8.13626 19.0573 5.5251L19.4558 2.13814C19.4658 2.01219 19.4658 1.88569 19.4558 1.75974C19.4558 1.51376 19.304 1.40025 19.0763 1.36241H4.16168C3.45959 1.36241 3.23191 1.55162 3.11806 2.25172C3.09849 2.44414 3.06034 2.63421 3.00418 2.81934C2.95474 2.95186 2.86292 3.06446 2.74287 3.1397C2.62282 3.21495 2.48125 3.24865 2.34006 3.23561C2.19867 3.2172 2.06699 3.15393 1.96447 3.05511C1.86195 2.95629 1.79404 2.82715 1.7708 2.68687C1.67773 2.09006 1.82494 1.48077 2.18035 0.991691C2.53577 0.50261 3.07059 0.173353 3.66833 0.0757012H11.5241L11.4862 5.68954e-05ZM23.3837 13.7181H27.1788C27.3116 13.7181 27.4824 13.7181 27.5013 13.5289C27.5013 12.6964 27.748 11.8638 27.748 11.0313C27.748 10.7474 27.748 10.6339 27.3875 10.6528H23.5924C23.4162 10.6661 23.2393 10.6397 23.0747 10.5754C22.9101 10.5112 22.7622 10.4109 22.6419 10.2818C22.5216 10.1527 22.432 9.99829 22.3797 9.82995C22.3275 9.66161 22.3139 9.48367 22.34 9.30939C22.34 8.47685 22.5298 7.66325 22.6247 6.84962C22.6578 6.5067 22.8183 6.18846 23.0745 5.95742C23.3308 5.72638 23.6644 5.59921 24.0099 5.6008H25.7746C26.0782 5.6008 26.0972 5.60081 25.9643 5.31699C25.8576 5.02828 25.663 4.78005 25.4079 4.60703C25.1527 4.434 24.8497 4.34482 24.5412 4.35197C23.3457 4.35197 22.1503 4.35197 20.9738 4.35197C20.6702 4.35197 20.5564 4.352 20.5184 4.73043C20.5184 5.37376 20.3666 6.01709 20.2907 6.62257C20.0251 8.83639 19.7404 11.0313 19.4748 13.2451C19.4748 13.5857 19.4748 13.6235 19.7974 13.6235L23.3837 13.7181ZM8.03266 15.0237C8.27392 15.2474 8.45636 15.5268 8.56397 15.8373C8.56397 16.1401 8.82961 16.1779 9.11424 16.1779H16.9511C17.8998 16.1779 17.6721 16.2725 17.8049 15.3832C17.8049 15.0237 17.805 15.0237 17.4634 15.0237H7.97574H8.03266ZM25.471 9.34727H27.0649C27.2736 9.34727 27.3116 9.34724 27.2357 9.08234L26.6095 7.1902C26.5915 7.11014 26.5451 7.03924 26.4789 6.99057C26.4126 6.94191 26.331 6.91872 26.249 6.92527H24.2186C24.0099 6.92527 23.915 6.92527 23.896 7.22802C23.896 7.8335 23.7442 8.45791 23.6683 9.12016C23.6683 9.3283 23.6683 9.42291 23.934 9.42291L25.471 9.34727ZM7.48236 16.9159C7.50022 16.6253 7.40914 16.3385 7.22678 16.1112C7.04443 15.8839 6.78384 15.7323 6.49566 15.6859C6.24183 15.6572 5.98479 15.6799 5.73996 15.7527C5.49514 15.8254 5.26758 15.9467 5.07089 16.1092C4.87421 16.2718 4.71246 16.4722 4.59535 16.6986C4.47825 16.925 4.40821 17.1727 4.3894 17.4267C4.38435 17.5898 4.41188 17.7522 4.47041 17.9046C4.52895 18.057 4.61728 18.1963 4.73031 18.3142C4.84333 18.4322 4.97878 18.5266 5.12874 18.5919C5.27871 18.6572 5.44021 18.692 5.60382 18.6944C6.08448 18.6854 6.5438 18.4949 6.88898 18.1612C7.23415 17.8276 7.43944 17.3757 7.4634 16.8969L7.48236 16.9159ZM23.8581 16.9159C23.8906 16.6182 23.8059 16.3195 23.6218 16.083C23.4377 15.8464 23.1686 15.6905 22.8714 15.6481C22.6145 15.6221 22.355 15.6487 22.1088 15.7261C21.8626 15.8036 21.6348 15.9303 21.4394 16.0986C21.244 16.2668 21.0851 16.4731 20.9725 16.7047C20.8598 16.9363 20.7957 17.1885 20.7841 17.4457C20.791 17.7457 20.906 18.0332 21.1081 18.2556C21.3102 18.478 21.5859 18.6203 21.8847 18.6566C22.3726 18.678 22.85 18.511 23.2176 18.1903C23.5852 17.8696 23.8146 17.4198 23.8581 16.9347V16.9159ZM24.4084 15.0237C24.6935 15.3149 24.9134 15.6632 25.0535 16.0454C25.0535 16.1779 25.2053 16.1779 25.3002 16.1779H26.268C26.3917 16.1953 26.5178 16.1847 26.6369 16.147C26.756 16.1093 26.8651 16.0454 26.9562 15.9601C27.0473 15.8747 27.1179 15.7701 27.163 15.6539C27.2081 15.5377 27.2265 15.4128 27.2167 15.2886C27.2167 15.0615 27.2167 15.0048 26.9321 15.0237H24.4084ZM4.19964 15.0237H2.18826C1.44822 15.0237 1.61898 15.0237 1.52411 15.6859C1.52411 15.9887 1.65696 16.159 1.96056 16.1779H3.21291C3.21291 16.1779 3.40268 16.1779 3.44063 16.0833C3.63951 15.7115 3.89561 15.3731 4.19964 15.0805V15.0237ZM20.5943 15.0237H19.8732C19.266 15.0237 19.266 15.0237 19.1712 15.6103C19.1605 15.6792 19.1605 15.7494 19.1712 15.8184C19.1712 15.9319 19.1712 16.1211 19.285 16.159C19.3989 16.1968 19.7404 16.2725 19.8732 16.159C20.0674 15.7766 20.3097 15.4205 20.5943 15.0994V15.0237Z"/>
</mask>
<path d="M11.4862 5.68954e-05H18.9814C19.4196 -0.0497946 19.8604 0.0694159 20.2132 0.333296C20.566 0.597176 20.8043 0.985722 20.879 1.41917C20.9356 1.85887 20.9356 2.30394 20.879 2.74364C20.879 3.08422 20.8789 3.10315 21.1826 3.10315H24.5412C25.0723 3.08075 25.5992 3.20713 26.062 3.46797C26.5248 3.72882 26.9051 4.11371 27.1598 4.57902C27.2331 4.71052 27.2904 4.85026 27.3306 4.9953C27.8239 6.45225 28.3173 7.92814 28.7917 9.38509C29.0751 10.225 29.1531 11.1202 29.0194 11.9963C28.8486 13.2451 28.7158 14.4939 28.545 15.7806C28.4792 16.2803 28.2288 16.7377 27.8428 17.0631C27.4567 17.3885 26.9629 17.5587 26.4577 17.5402H25.471C25.2623 17.5402 25.1864 17.5402 25.1105 17.8051C24.9382 18.3819 24.6034 18.8971 24.1459 19.2896C23.6884 19.6821 23.1274 19.9352 22.5298 20.019C22.1993 20.0756 21.8608 20.066 21.534 19.9907C21.2072 19.9153 20.8988 19.7758 20.6267 19.5803C20.3547 19.3847 20.1244 19.1371 19.9494 18.8518C19.7744 18.5665 19.6582 18.2493 19.6076 17.9187C19.6076 17.6538 19.4748 17.5402 19.1712 17.5402H9.1522C9.04986 17.5284 8.94673 17.5547 8.86266 17.614C8.77859 17.6734 8.71951 17.7617 8.69678 17.8619C8.46337 18.6063 7.95581 19.2349 7.27629 19.621C6.59678 20.0072 5.79579 20.1223 5.03456 19.9433C4.54492 19.8477 4.09798 19.6006 3.7573 19.2371C3.41663 18.8736 3.19957 18.4123 3.13702 17.9187C3.13702 17.6349 2.98523 17.5024 2.7006 17.5402H1.86568C1.6254 17.5388 1.38807 17.4873 1.16887 17.3892C0.949672 17.291 0.753423 17.1483 0.592684 16.9703C0.431945 16.7922 0.31026 16.5826 0.235391 16.3549C0.160522 16.1273 0.134113 15.8865 0.157881 15.6481L0.385605 13.7559C0.393588 13.5993 0.457102 13.4504 0.56483 13.3361C0.672559 13.2217 0.8175 13.1493 0.973835 13.1316C1.12146 13.1075 1.27282 13.1385 1.39888 13.2188C1.52494 13.2991 1.61684 13.423 1.65695 13.5667C1.65695 13.7749 1.88464 13.7559 2.05541 13.7559H17.6531C17.9567 13.7559 18.0516 13.7559 18.0896 13.3775C18.3932 10.7474 18.7347 8.13626 19.0573 5.5251L19.4558 2.13814C19.4658 2.01219 19.4658 1.88569 19.4558 1.75974C19.4558 1.51376 19.304 1.40025 19.0763 1.36241H4.16168C3.45959 1.36241 3.23191 1.55162 3.11806 2.25172C3.09849 2.44414 3.06034 2.63421 3.00418 2.81934C2.95474 2.95186 2.86292 3.06446 2.74287 3.1397C2.62282 3.21495 2.48125 3.24865 2.34006 3.23561C2.19867 3.2172 2.06699 3.15393 1.96447 3.05511C1.86195 2.95629 1.79404 2.82715 1.7708 2.68687C1.67773 2.09006 1.82494 1.48077 2.18035 0.991691C2.53577 0.50261 3.07059 0.173353 3.66833 0.0757012H11.5241L11.4862 5.68954e-05ZM23.3837 13.7181H27.1788C27.3116 13.7181 27.4824 13.7181 27.5013 13.5289C27.5013 12.6964 27.748 11.8638 27.748 11.0313C27.748 10.7474 27.748 10.6339 27.3875 10.6528H23.5924C23.4162 10.6661 23.2393 10.6397 23.0747 10.5754C22.9101 10.5112 22.7622 10.4109 22.6419 10.2818C22.5216 10.1527 22.432 9.99829 22.3797 9.82995C22.3275 9.66161 22.3139 9.48367 22.34 9.30939C22.34 8.47685 22.5298 7.66325 22.6247 6.84962C22.6578 6.5067 22.8183 6.18846 23.0745 5.95742C23.3308 5.72638 23.6644 5.59921 24.0099 5.6008H25.7746C26.0782 5.6008 26.0972 5.60081 25.9643 5.31699C25.8576 5.02828 25.663 4.78005 25.4079 4.60703C25.1527 4.434 24.8497 4.34482 24.5412 4.35197C23.3457 4.35197 22.1503 4.35197 20.9738 4.35197C20.6702 4.35197 20.5564 4.352 20.5184 4.73043C20.5184 5.37376 20.3666 6.01709 20.2907 6.62257C20.0251 8.83639 19.7404 11.0313 19.4748 13.2451C19.4748 13.5857 19.4748 13.6235 19.7974 13.6235L23.3837 13.7181ZM8.03266 15.0237C8.27392 15.2474 8.45636 15.5268 8.56397 15.8373C8.56397 16.1401 8.82961 16.1779 9.11424 16.1779H16.9511C17.8998 16.1779 17.6721 16.2725 17.8049 15.3832C17.8049 15.0237 17.805 15.0237 17.4634 15.0237H7.97574H8.03266ZM25.471 9.34727H27.0649C27.2736 9.34727 27.3116 9.34724 27.2357 9.08234L26.6095 7.1902C26.5915 7.11014 26.5451 7.03924 26.4789 6.99057C26.4126 6.94191 26.331 6.91872 26.249 6.92527H24.2186C24.0099 6.92527 23.915 6.92527 23.896 7.22802C23.896 7.8335 23.7442 8.45791 23.6683 9.12016C23.6683 9.3283 23.6683 9.42291 23.934 9.42291L25.471 9.34727ZM7.48236 16.9159C7.50022 16.6253 7.40914 16.3385 7.22678 16.1112C7.04443 15.8839 6.78384 15.7323 6.49566 15.6859C6.24183 15.6572 5.98479 15.6799 5.73996 15.7527C5.49514 15.8254 5.26758 15.9467 5.07089 16.1092C4.87421 16.2718 4.71246 16.4722 4.59535 16.6986C4.47825 16.925 4.40821 17.1727 4.3894 17.4267C4.38435 17.5898 4.41188 17.7522 4.47041 17.9046C4.52895 18.057 4.61728 18.1963 4.73031 18.3142C4.84333 18.4322 4.97878 18.5266 5.12874 18.5919C5.27871 18.6572 5.44021 18.692 5.60382 18.6944C6.08448 18.6854 6.5438 18.4949 6.88898 18.1612C7.23415 17.8276 7.43944 17.3757 7.4634 16.8969L7.48236 16.9159ZM23.8581 16.9159C23.8906 16.6182 23.8059 16.3195 23.6218 16.083C23.4377 15.8464 23.1686 15.6905 22.8714 15.6481C22.6145 15.6221 22.355 15.6487 22.1088 15.7261C21.8626 15.8036 21.6348 15.9303 21.4394 16.0986C21.244 16.2668 21.0851 16.4731 20.9725 16.7047C20.8598 16.9363 20.7957 17.1885 20.7841 17.4457C20.791 17.7457 20.906 18.0332 21.1081 18.2556C21.3102 18.478 21.5859 18.6203 21.8847 18.6566C22.3726 18.678 22.85 18.511 23.2176 18.1903C23.5852 17.8696 23.8146 17.4198 23.8581 16.9347V16.9159ZM24.4084 15.0237C24.6935 15.3149 24.9134 15.6632 25.0535 16.0454C25.0535 16.1779 25.2053 16.1779 25.3002 16.1779H26.268C26.3917 16.1953 26.5178 16.1847 26.6369 16.147C26.756 16.1093 26.8651 16.0454 26.9562 15.9601C27.0473 15.8747 27.1179 15.7701 27.163 15.6539C27.2081 15.5377 27.2265 15.4128 27.2167 15.2886C27.2167 15.0615 27.2167 15.0048 26.9321 15.0237H24.4084ZM4.19964 15.0237H2.18826C1.44822 15.0237 1.61898 15.0237 1.52411 15.6859C1.52411 15.9887 1.65696 16.159 1.96056 16.1779H3.21291C3.21291 16.1779 3.40268 16.1779 3.44063 16.0833C3.63951 15.7115 3.89561 15.3731 4.19964 15.0805V15.0237ZM20.5943 15.0237H19.8732C19.266 15.0237 19.266 15.0237 19.1712 15.6103C19.1605 15.6792 19.1605 15.7494 19.1712 15.8184C19.1712 15.9319 19.1712 16.1211 19.285 16.159C19.3989 16.1968 19.7404 16.2725 19.8732 16.159C20.0674 15.7766 20.3097 15.4205 20.5943 15.0994V15.0237Z" fill="black" stroke="#E2DBC9" stroke-width="0.4" mask="url(#path-1-inside-1_457_816)"/>
</svg>
