<svg width="30" height="20" viewBox="0 0 30 20" fill="none" xmlns="http://www.w3.org/2000/svg">
<g clip-path="url(#clip0_457_798)">
<path d="M0.000340119 1.03714C0.119423 0.704214 0.344932 0.421241 0.640965 0.233292C0.936998 0.0453428 1.28654 -0.0367969 1.63393 -3.07392e-05C10.5703 -3.07392e-05 19.5067 -3.07392e-05 28.4431 -3.07392e-05C28.6909 -0.0151499 28.9386 0.0312281 29.1647 0.135078C29.3908 0.238928 29.5886 0.397132 29.7408 0.59596C29.9235 0.857591 30.0148 1.17357 30.0003 1.4938C30.0003 5.952 30.0003 10.4179 30.0003 14.8761V18.4984C30.0103 18.6969 29.9789 18.8953 29.9083 19.0807C29.8377 19.2661 29.7294 19.4343 29.5904 19.5745C29.4515 19.7146 29.285 19.8236 29.1018 19.8942C28.9186 19.9649 28.7227 19.9956 28.5271 19.9845H25.8629C25.4813 19.9845 25.2675 19.7446 25.3362 19.4117C25.3603 19.2875 25.4312 19.1777 25.5338 19.1054C25.6363 19.0332 25.7626 19.0043 25.8858 19.0247C26.3744 19.0247 26.8629 19.0247 27.3515 19.0247H28.5194C28.8935 19.0247 29.0461 18.8622 29.0767 18.4829C29.0767 18.3901 29.0767 18.2894 29.0767 18.1888V1.80339C29.0843 1.68484 29.0843 1.56591 29.0767 1.44736C29.0769 1.38297 29.0639 1.31924 29.0385 1.26021C29.0132 1.20119 28.976 1.14815 28.9293 1.10448C28.8827 1.06081 28.8276 1.02748 28.7675 1.00655C28.7075 0.98563 28.6438 0.977591 28.5805 0.982957H15.9316C15.4736 0.982957 15.4736 0.982946 15.4736 1.43186V9.27242C15.4736 10.1316 15.1225 10.4953 14.2675 10.4953H1.29042C0.870571 10.4953 0.862939 10.4953 0.862939 10.9133C0.862939 13.3694 0.862939 15.823 0.862939 18.274C0.840338 18.4201 0.840338 18.569 0.862939 18.7152C0.888164 18.8013 0.939174 18.8774 1.00892 18.9329C1.07867 18.9883 1.16371 19.0204 1.25225 19.0247H23.3897C23.5737 19.0142 23.7584 19.0272 23.9393 19.0634C24.0479 19.0825 24.1454 19.1426 24.212 19.2317C24.2786 19.3207 24.3093 19.4321 24.2981 19.5433C24.2981 19.659 24.2533 19.7701 24.1733 19.8526C24.0934 19.9351 23.9846 19.9825 23.8706 19.9845C23.7536 19.9922 23.6363 19.9922 23.5194 19.9845C16.2014 19.9845 8.88329 19.9845 1.56523 19.9845C1.21784 20.0213 0.868298 19.9391 0.572265 19.7512C0.276232 19.5632 0.0507233 19.2803 -0.0683594 18.9473L0.000340119 1.03714ZM11.2293 6.91948L11.321 7.03559L14.2751 8.97058C14.4813 9.1099 14.5118 9.00927 14.5118 8.81577C14.5118 7.53094 14.5118 6.23837 14.5118 4.9458C14.5118 4.53558 14.5118 4.53559 14.1072 4.53559H9.07668C8.58813 4.53559 8.42019 4.35755 8.42019 3.86994C8.42019 3.01081 8.42019 2.15168 8.42019 1.29255C8.42019 1.03713 8.32859 0.951982 8.09195 0.967462C7.8581 0.982943 7.6235 0.982943 7.38965 0.967462C7.11484 0.967462 7.0156 1.05261 7.02324 1.33899C7.02324 2.16716 7.02324 3.00307 7.02324 3.83125C7.02324 4.35756 6.84767 4.52785 6.33622 4.53559H4.04614C3.09958 4.53559 2.15301 4.53559 1.20645 4.53559C0.969807 4.53559 0.870572 4.613 0.885839 4.86067C0.90493 5.09764 0.90493 5.33577 0.885839 5.57273C0.885839 5.88233 0.969801 5.95973 1.25988 5.95973C2.924 5.95973 4.58049 5.95973 6.23698 5.95973C6.87057 5.95973 7.00034 6.09905 7.00034 6.73372V9.10989C7.00034 9.51237 7.00033 9.51236 7.38965 9.51236C7.61102 9.51236 7.84003 9.51236 8.06141 9.51236C8.28278 9.51236 8.39729 9.43496 8.39729 9.1718C8.39729 8.29719 8.39729 7.41483 8.39729 6.53248C8.39729 6.15322 8.56522 5.952 8.90874 5.94426H13.069C13.1936 5.9419 13.3143 5.98785 13.4065 6.07273C13.4987 6.15761 13.5555 6.27501 13.5652 6.40091C13.5658 6.52667 13.5198 6.64807 13.4364 6.74119C13.3531 6.83431 13.2383 6.8924 13.1148 6.904C13.0081 6.9116 12.901 6.9116 12.7942 6.904L11.2293 6.91948ZM2.14538 9.45817V9.51236H5.80187C5.99271 9.51236 6.05377 9.42722 6.04614 9.24146V7.19813C6.04614 7.12073 6.04614 7.0201 6.00034 6.97366C5.95454 6.92722 5.84003 7.01237 5.77133 7.05881L3.33621 8.65324L2.14538 9.45817ZM13.2522 9.51236V9.4427L9.57285 7.02785C9.37438 6.90401 9.36676 7.02785 9.36676 7.17491C9.36676 7.84054 9.36676 8.50618 9.36676 9.16408C9.36676 9.43497 9.45072 9.52785 9.71789 9.52011C10.6187 9.52011 11.5118 9.52011 12.4125 9.52011L13.2522 9.51236ZM2.13775 0.998428L5.89347 3.45972C6.09958 3.5913 6.06904 3.40555 6.06904 3.29719C6.06904 2.63156 6.06904 1.95818 6.06904 1.2848C6.06904 1.0139 5.96981 0.94425 5.72553 0.95199H2.6721C2.49155 0.948155 2.31146 0.97163 2.13775 1.02165V0.998428ZM13.2522 0.998428V0.921024H9.69499C9.55759 0.921024 9.39729 0.921024 9.38966 1.11452V3.3359C9.38966 3.46748 9.45072 3.49069 9.5576 3.42103L10.069 3.08822L13.2522 0.998428ZM4.16827 3.51391V3.452L3.14537 2.77863L1.13011 1.47058C1.0156 1.39318 0.878198 1.28481 0.878198 1.56345C0.878198 2.14395 0.878198 2.72444 0.878198 3.30494C0.878198 3.45974 0.946899 3.52166 1.09194 3.52166L4.16827 3.51391ZM4.16827 6.91175L4.05377 6.87304H1.10721C0.908735 6.87304 0.855298 6.96592 0.855298 7.14394C0.855298 7.67026 0.855298 8.18883 0.855298 8.69193C0.855298 8.78481 0.801861 8.90866 0.901098 8.97058C1.00033 9.0325 1.07667 8.91639 1.15301 8.86996L2.91636 7.70896L4.16827 6.91175ZM11.1912 3.452V3.59131H14.2446C14.4202 3.59131 14.466 3.49843 14.4584 3.34363C14.4584 2.78635 14.4584 2.22134 14.4584 1.65633C14.4584 1.48605 14.4584 1.40864 14.237 1.52474L11.1912 3.452Z" fill="black"/>
<path d="M7.77853 13.3979C7.7709 13.2483 7.7709 13.0985 7.77853 12.9489C7.77733 12.8846 7.78932 12.8207 7.81376 12.7613C7.83819 12.702 7.87453 12.6484 7.92046 12.604C7.9664 12.5596 8.02093 12.5254 8.0806 12.5035C8.14027 12.4816 8.20377 12.4725 8.26708 12.4768C8.32854 12.4768 8.38937 12.4893 8.44596 12.5136C8.50255 12.5379 8.55373 12.5735 8.59646 12.6182C8.6392 12.663 8.67261 12.7161 8.69471 12.7742C8.71681 12.8324 8.72714 12.8944 8.72509 12.9567C8.72509 13.2585 8.72509 13.5527 8.72509 13.8468C8.72509 14.017 8.78616 14.0557 8.93883 14.0093C9.0915 13.9629 9.43501 13.8313 9.70219 13.7539C9.96936 13.6765 10.3052 13.7539 10.3968 14.048C10.4885 14.3421 10.3434 14.5434 9.99991 14.6595L9.23655 14.9226C9.09151 14.9613 9.06098 15.0232 9.15258 15.1471C9.24418 15.2709 9.49608 15.6115 9.65639 15.8437C9.70158 15.8959 9.73563 15.957 9.75639 16.0232C9.77714 16.0894 9.78415 16.1592 9.77698 16.2283C9.76981 16.2973 9.74861 16.3642 9.71472 16.4245C9.68083 16.4849 9.63498 16.5375 9.58006 16.579C9.52437 16.6151 9.46202 16.6394 9.39679 16.6504C9.33156 16.6614 9.26482 16.6589 9.20058 16.643C9.13635 16.6271 9.07597 16.5981 9.0231 16.5578C8.97024 16.5175 8.92598 16.4668 8.89303 16.4087C8.74799 16.2074 8.59532 16.014 8.46555 15.805C8.33578 15.596 8.23655 15.565 8.09151 15.805C7.94647 16.0449 7.80143 16.2229 7.64876 16.4242C7.61636 16.4831 7.57187 16.5343 7.51831 16.5743C7.46474 16.6143 7.40334 16.6422 7.33824 16.6562C7.27314 16.6701 7.20585 16.6698 7.1409 16.6551C7.07595 16.6404 7.01486 16.6118 6.96173 16.5712C6.90897 16.5306 6.86507 16.4793 6.83277 16.4207C6.80046 16.362 6.78045 16.2973 6.774 16.2304C6.76755 16.1635 6.77479 16.0961 6.79527 16.0322C6.81576 15.9683 6.84904 15.9094 6.89303 15.8592C7.03807 15.6424 7.19074 15.4257 7.35868 15.2167C7.52662 15.0078 7.47318 14.9613 7.25944 14.9071C7.0457 14.853 6.76326 14.7446 6.49608 14.6595C6.43146 14.647 6.37011 14.621 6.31595 14.5831C6.26179 14.5452 6.21602 14.4964 6.18154 14.4395C6.14706 14.3827 6.12464 14.3193 6.11571 14.2532C6.10678 14.1871 6.11154 14.1199 6.12967 14.0557C6.14826 13.9912 6.18001 13.9313 6.22288 13.8801C6.26575 13.8288 6.31877 13.7872 6.37851 13.758C6.43825 13.7288 6.50337 13.7126 6.56965 13.7106C6.63593 13.7086 6.70189 13.7207 6.76326 13.7461C7.00963 13.8109 7.25182 13.891 7.48845 13.9861C7.74036 14.0944 7.80143 13.9861 7.77853 13.7616C7.75563 13.5372 7.77853 13.5217 7.77853 13.4056V13.3979Z" fill="black"/>
<path d="M21.5034 14.7988C21.6561 14.8529 21.6943 14.7601 21.7248 14.6053C21.7379 14.4958 21.7903 14.3951 21.872 14.3223C21.9536 14.2495 22.0588 14.2097 22.1676 14.2105C22.2814 14.2017 22.3942 14.2379 22.4824 14.3115C22.5706 14.385 22.6274 14.4903 22.6408 14.6053C22.6408 14.7678 22.7248 14.822 22.8928 14.7988C23.0051 14.7733 23.1228 14.7941 23.2201 14.8565C23.3174 14.9189 23.3863 15.0178 23.4118 15.1316C23.4485 15.2414 23.441 15.3615 23.391 15.4658C23.341 15.5701 23.2525 15.6502 23.1447 15.6889C23.0149 15.7508 22.992 15.805 23.0607 15.9365C23.0947 15.9854 23.1186 16.0406 23.1308 16.0991C23.1431 16.1575 23.1436 16.2179 23.1322 16.2765C23.1207 16.3352 23.0977 16.3908 23.0644 16.4402C23.0311 16.4895 22.9883 16.5314 22.9386 16.5635C22.8935 16.6026 22.8409 16.6318 22.7841 16.6491C22.7274 16.6665 22.6677 16.6718 22.6088 16.6645C22.5499 16.6572 22.4932 16.6376 22.4422 16.6069C22.3912 16.5761 22.3471 16.535 22.3126 16.4861C22.2057 16.37 22.1447 16.3932 22.0531 16.4861C22.0182 16.5349 21.9735 16.5756 21.9219 16.6056C21.8703 16.6356 21.813 16.6541 21.7538 16.66C21.6947 16.6658 21.6349 16.6589 21.5786 16.6396C21.5223 16.6203 21.4706 16.589 21.4271 16.548C21.3783 16.514 21.3367 16.4704 21.3048 16.4198C21.2729 16.3693 21.2514 16.3127 21.2414 16.2535C21.2314 16.1944 21.2333 16.1338 21.2468 16.0753C21.2604 16.0169 21.2853 15.9618 21.3202 15.9133C21.3813 15.7972 21.366 15.743 21.2439 15.6889C21.188 15.6705 21.1362 15.641 21.0916 15.6022C21.047 15.5633 21.0105 15.5158 20.9842 15.4625C20.958 15.4092 20.9424 15.3511 20.9385 15.2916C20.9346 15.2322 20.9424 15.1725 20.9615 15.1161C21.0302 14.8607 21.2286 14.7755 21.5034 14.7988Z" fill="black"/>
<path d="M21.4654 4.31887C21.6333 4.37305 21.6944 4.31886 21.7249 4.14084C21.7398 4.03075 21.7937 3.92994 21.8766 3.85728C21.9595 3.78461 22.0657 3.74509 22.1753 3.74612C22.2887 3.73922 22.4006 3.77606 22.4884 3.84927C22.5761 3.92248 22.6334 4.02663 22.6486 4.14084C22.6486 4.30338 22.7402 4.34983 22.9081 4.32661C23.0151 4.30536 23.1261 4.32637 23.2184 4.38536C23.3106 4.44435 23.3771 4.53684 23.4043 4.64393C23.4252 4.69726 23.4355 4.75428 23.4345 4.81166C23.4336 4.86904 23.4214 4.92565 23.3986 4.97821C23.3759 5.03077 23.3431 5.07824 23.3021 5.11785C23.2612 5.15746 23.2129 5.18843 23.16 5.20896C22.9997 5.28635 22.9921 5.35601 23.0761 5.49533C23.1059 5.5415 23.1263 5.59322 23.1363 5.64747C23.1463 5.70171 23.1456 5.75743 23.1343 5.81139C23.1229 5.86536 23.1011 5.91652 23.0702 5.9619C23.0392 6.00729 22.9997 6.046 22.9539 6.07582C22.9153 6.11778 22.8687 6.15123 22.8168 6.17411C22.7649 6.19699 22.709 6.20881 22.6524 6.20881C22.5958 6.20881 22.5399 6.19699 22.488 6.17411C22.4361 6.15123 22.3894 6.11778 22.3509 6.07582C22.2211 5.94425 22.1371 5.95973 22.015 6.07582C21.9356 6.15203 21.8304 6.19452 21.7211 6.19452C21.6118 6.19452 21.5066 6.15203 21.4272 6.07582C21.379 6.04526 21.3375 6.0051 21.3051 5.95777C21.2726 5.91044 21.25 5.85695 21.2386 5.80051C21.2272 5.74406 21.2272 5.68584 21.2386 5.6294C21.25 5.57295 21.2726 5.51944 21.3051 5.47211C21.3967 5.31731 21.3509 5.26314 21.2058 5.19348C21.0999 5.14891 21.0156 5.06371 20.9713 4.95645C20.927 4.84919 20.9262 4.72853 20.9692 4.62071C21.0024 4.51841 21.0708 4.43166 21.1619 4.37624C21.253 4.32083 21.3607 4.30046 21.4654 4.31887Z" fill="black"/>
<path d="M27.1833 7.70124C27.1765 7.78213 27.147 7.85936 27.0983 7.92382C27.0496 7.98827 26.9837 8.03727 26.9085 8.06502C26.7787 8.12694 26.7329 8.18886 26.8169 8.33592C26.8497 8.38277 26.8727 8.43587 26.8847 8.492C26.8967 8.54814 26.8974 8.60614 26.8867 8.66254C26.876 8.71895 26.8542 8.77259 26.8225 8.82021C26.7908 8.86783 26.75 8.90845 26.7024 8.93963C26.6594 8.98111 26.6081 9.01286 26.5521 9.03279C26.4961 9.05273 26.4366 9.06038 26.3774 9.05526C26.3182 9.05014 26.2608 9.03235 26.2089 9.00308C26.1571 8.97381 26.1119 8.93372 26.0764 8.88545C25.9696 8.76935 25.8932 8.78483 25.7864 8.88545C25.7509 8.93013 25.707 8.9671 25.6571 8.99413C25.6073 9.02116 25.5525 9.03768 25.4962 9.04274C25.4399 9.0478 25.3831 9.04128 25.3294 9.02356C25.2756 9.00584 25.2259 8.9773 25.1833 8.93963C25.1333 8.90775 25.0903 8.86567 25.0571 8.8161C25.0239 8.76653 25.0013 8.71052 24.9905 8.65161C24.9797 8.5927 24.9811 8.53217 24.9946 8.47384C25.0081 8.41551 25.0334 8.36064 25.0688 8.3127C25.1451 8.18112 25.1222 8.12694 24.9925 8.06502C24.9357 8.04705 24.8833 8.01728 24.8385 7.9776C24.7937 7.93792 24.7576 7.88921 24.7325 7.83458C24.7073 7.77995 24.6937 7.7206 24.6925 7.66033C24.6912 7.60006 24.7024 7.54017 24.7253 7.48452C24.741 7.42759 24.7679 7.37445 24.8042 7.32825C24.8406 7.28205 24.8858 7.24374 24.937 7.21558C24.9883 7.18742 25.0446 7.17 25.1027 7.16435C25.1607 7.1587 25.2193 7.16493 25.2749 7.18268C25.4047 7.18268 25.4505 7.18266 25.4657 7.04334C25.4687 6.98062 25.4839 6.91914 25.5105 6.86246C25.5371 6.80577 25.5747 6.75505 25.6209 6.71325C25.6671 6.67144 25.721 6.6394 25.7796 6.619C25.8382 6.5986 25.9001 6.59025 25.9619 6.59443C26.0214 6.59339 26.0804 6.60448 26.1355 6.62705C26.1906 6.64963 26.2407 6.68324 26.2827 6.72586C26.3247 6.76847 26.3579 6.81921 26.3801 6.87509C26.4024 6.93097 26.4133 6.99083 26.4123 7.05109C26.4123 7.22911 26.5268 7.18267 26.6337 7.17493C26.7059 7.16248 26.7801 7.16721 26.8502 7.18877C26.9204 7.21033 26.9846 7.24812 27.0379 7.29915C27.0912 7.35018 27.1321 7.41307 27.1573 7.48285C27.1825 7.55262 27.1914 7.62738 27.1833 7.70124Z" fill="black"/>
<path d="M17.7709 9.08668C17.9083 9.14086 17.9618 9.08667 17.9847 8.90865C17.9942 8.79848 18.0443 8.69597 18.1248 8.62143C18.2054 8.54689 18.3107 8.50576 18.4198 8.50619C18.533 8.49299 18.6467 8.52532 18.7366 8.59623C18.8265 8.66714 18.8854 8.77097 18.9007 8.88544C18.9007 9.05571 18.9847 9.11764 19.1679 9.08668C19.2801 9.06621 19.3958 9.09122 19.49 9.15636C19.5842 9.2215 19.6495 9.32155 19.6717 9.43497C19.705 9.53476 19.6999 9.64363 19.6575 9.73979C19.615 9.83594 19.5383 9.91229 19.4427 9.95355C19.2824 10.0387 19.2518 10.1006 19.3434 10.2709C19.3983 10.3671 19.4146 10.4809 19.389 10.5889C19.3634 10.697 19.2979 10.7909 19.206 10.8514C19.1276 10.9294 19.022 10.9731 18.9121 10.9731C18.8022 10.9731 18.6967 10.9294 18.6183 10.8514C18.4808 10.7043 18.4045 10.7198 18.2671 10.8514C18.1899 10.9289 18.0857 10.9724 17.977 10.9724C17.8684 10.9724 17.7641 10.9289 17.687 10.8514C17.5959 10.7883 17.5314 10.693 17.506 10.5842C17.4806 10.4754 17.4961 10.3609 17.5496 10.2631C17.6335 10.1083 17.6259 10.0387 17.4579 9.9613C17.4062 9.93859 17.3594 9.90573 17.3202 9.8646C17.281 9.82347 17.2503 9.77489 17.2297 9.72165C17.2091 9.66841 17.1991 9.61156 17.2003 9.55439C17.2015 9.49722 17.2138 9.44084 17.2366 9.38853C17.2718 9.27925 17.3464 9.18747 17.4455 9.13151C17.5445 9.07556 17.6607 9.05955 17.7709 9.08668Z" fill="black"/>
<path d="M23.4432 10C23.566 10.004 23.6825 10.0563 23.768 10.1459C23.8535 10.2355 23.9013 10.3552 23.9012 10.4799C23.8992 10.6045 23.8495 10.7234 23.7626 10.8115C23.6757 10.8996 23.5584 10.95 23.4356 10.952C23.3133 10.9461 23.1979 10.8932 23.1128 10.804C23.0277 10.7149 22.9793 10.5962 22.9775 10.4721C22.9814 10.3482 23.0316 10.2303 23.1182 10.1426C23.2047 10.0549 23.3209 10.0039 23.4432 10Z" fill="black"/>
</g>
<defs>
<clipPath id="clip0_457_798">
<rect width="30" height="20" fill="white"/>
</clipPath>
</defs>
</svg>
