<svg width="16" height="16" viewBox="0 0 16 16" fill="none" xmlns="http://www.w3.org/2000/svg">
<g clip-path="url(#clip0_453_502)">
<path d="M8.10454 16.0003H7.91676C7.84727 15.9517 7.76641 15.9606 7.68927 15.961C7.27284 15.9596 6.8578 15.9127 6.45154 15.8212C4.01701 15.2909 2.18429 13.9364 0.977368 11.7555C0.386108 10.6871 0.0748651 9.53331 0.0399148 8.30871C0.0376399 8.23113 0.0428089 8.15147 0 8.08113V7.89368C0.0428089 7.82293 0.0390871 7.74327 0.0395008 7.6661C0.0444836 7.3381 0.0765095 7.01107 0.135252 6.68833C0.494682 4.59334 1.52851 2.90221 3.21046 1.61472C4.38678 0.713702 5.7213 0.195851 7.19852 0.0452339C7.8719 -0.0256233 8.55156 -0.0103976 9.22109 0.0905433C10.2032 0.240954 11.1357 0.552534 11.9871 1.06976C14.5803 2.64504 15.91 4.96492 15.9977 7.9903C16.0157 8.61326 15.926 9.23621 15.7781 9.84654C14.9292 13.3556 11.8229 15.8534 8.33203 15.9604C8.25427 15.9625 8.17361 15.9517 8.10454 16.0003ZM6.84054 10.8487C7.02108 10.8669 7.14951 10.766 7.27111 10.6445C8.79307 9.12055 10.3154 7.59714 11.8382 6.07428C11.8761 6.03845 11.9118 6.00031 11.9449 5.96007C12.1592 5.68284 12.0543 5.27857 11.7266 5.15505C11.4885 5.06547 11.2863 5.13581 11.1049 5.31809C9.72163 6.70785 8.33672 8.09596 6.95015 9.48241C6.85605 9.57717 6.81014 9.56889 6.72121 9.47869C6.10948 8.85801 5.49416 8.24168 4.87526 7.62969C4.65501 7.41121 4.32412 7.41018 4.11793 7.61707C3.90657 7.82913 3.90926 8.14547 4.13489 8.37243C4.90366 9.14483 5.67401 9.91585 6.44595 10.6855C6.55349 10.7939 6.67758 10.8628 6.84013 10.8493L6.84054 10.8487Z" fill="#4BAE4F"/>
</g>
<defs>
<clipPath id="clip0_453_502">
<rect width="16" height="16" fill="white"/>
</clipPath>
</defs>
</svg>
